<?xml version="1.0" encoding="utf-8"?>
<!-- Svg Vector Icons : http://www.onlinewebfonts.com/icon -->
<!DOCTYPE svg PUBLIC "-//W3C//DTD SVG 1.1//EN" "http://www.w3.org/Graphics/SVG/1.1/DTD/svg11.dtd">
<svg version="1.1" xmlns="http://www.w3.org/2000/svg" xmlns:xlink="http://www.w3.org/1999/xlink" x="0px" y="0px" viewBox="0 0 256 256" enable-background="new 0 0 256 256" xml:space="preserve">
<metadata> Svg Vector Icons : http://www.onlinewebfonts.com/icon </metadata>
<g><g><g><path fill="#000000" d="M200,233.5c-1.9,0-3.7-0.6-5.3-1.6l-59.3-40.2l-31.8,22.9c-2.5,1.8-5.7,2.2-8.6,1.2c-2.9-1-5.1-3.4-5.9-6.4l-16-60.6L16,127c-3.6-1.4-6-4.8-6-8.7c0-3.9,2.3-7.3,5.9-8.7L233,23.2c1-0.4,2-0.7,3.1-0.7c0.4,0,0.7,0,1.1,0c2.2,0.1,4.3,1,6,2.6c0.2,0.2,0.3,0.3,0.5,0.5c1.4,1.6,2.1,3.5,2.3,5.5c0,0.5,0,1,0,1.5c0,0.4-0.1,0.7-0.1,1.1L209.2,226c-0.6,3.1-2.7,5.7-5.6,6.9C202.4,233.3,201.2,233.5,200,233.5z M140.6,172.6l52.9,35.9L222,58.9L119,158l21.4,14.5C140.5,172.5,140.5,172.6,140.6,172.6z M96.6,164.7l7.1,26.8l15.2-11L99,167C98,166.3,97.3,165.6,96.6,164.7z M45,118.1l39.2,15c2.8,1.1,4.9,3.4,5.7,6.3l5,18.9c0.2-2.2,1.2-4.2,2.8-5.8l98.1-94.4L45,118.1z"/></g><g></g><g></g><g></g><g></g><g></g><g></g><g></g><g></g><g></g><g></g><g></g><g></g><g></g><g></g><g></g></g></g>
</svg>